Coordinates
version=1
nRows=10
nColumns=22
inDegrees=yes

Units are S.I. units (second, meters, Newtons, ...)
If the header above contains a line with 'inDegrees', this indicates whether rotational values are in degrees (yes) or radians (no).

endheader
time	pelvis_tilt	pelvis_list	pelvis_rotation	pelvis_tx	pelvis_ty	pelvis_tz	hip_flexion_r	hip_adduction_r	hip_rotation_r	knee_angle_r	ankle_angle_r	subtalar_angle_r	hip_flexion_l	hip_adduction_l	hip_rotation_l	knee_angle_l	ankle_angle_l	subtalar_angle_l	lumbar_extension	lumbar_bending	lumbar_rotation
      1.85000000	      4.29430463	     -2.30521631	     63.80588563	      0.79861621	      1.03893358	      0.52275070	     22.48258111	      6.23204579	      0.79967782	    -12.66602352	      4.15641432	      6.24970038	    -13.17507025	      4.48770945	     14.04102066	    -21.42307468	     15.60011542	     -6.58005866	     -2.79334381	     -0.00209473	     -9.81504802
      1.86000000	      4.45988172	     -2.33542252	     64.55760762	      0.80298563	      1.03865444	      0.51219783	     22.67832023	      6.42398098	      1.41535491	    -14.15509687	      3.24354775	      5.11830096	    -12.85570251	      4.25584088	     14.16218900	    -23.14218665	     14.62999529	     -5.35057559	     -2.65365701	      0.39053174	    -10.05653352
      1.87000000	      4.65750884	     -2.34629660	     65.31609593	      0.80724355	      1.03872507	      0.50153394	     22.83926663	      6.59271084	      1.94532708	    -15.66895557	      2.54243489	      4.33470374	    -12.44669473	      4.00777845	     14.22120230	    -25.01471568	     13.39997899	     -3.79890501	     -2.53517242	      0.81099941	    -10.27963187
      1.88000000	      4.88656217	     -2.31482405	     66.07352387	      0.81140309	      1.03916115	      0.49075446	     22.91569529	      6.72594397	      2.30496411	    -17.15696378	      2.14670260	      3.90010302	    -11.97366338	      3.74801798	     14.20585096	    -27.01683896	     11.89355516	     -1.85817485	     -2.45817166	      1.24577964	    -10.47797402
      1.89000000	      5.14854276	     -2.25589395	     66.86396987	      0.81542010	      1.03994816	      0.47987910	     22.85811501	      6.82017642	      2.44503593	    -18.49307571	      2.01838374	      3.74039492	    -11.40554647	      3.46171646	     14.16016063	    -29.16235164	     10.10930164	      0.40679117	     -2.40649600	      1.69874996	    -10.67799427
      1.90000000	      5.43076286	     -2.15755000	     67.68330261	      0.81927878	      1.04106563	      0.46898068	     22.62816800	      6.86824824	      2.37394469	    -19.61328120	      2.15152540	      3.74198749	    -10.73787699	      3.16216143	     14.08265631	    -31.44665894	      8.06472242	      3.02411120	     -2.39457606	      2.15069781	    -10.85788045
      1.91000000	      5.73376726	     -2.03449590	     68.54702894	      0.82297017	      1.04245682	      0.45814000	     22.22861758	      6.88495261	      2.07947151	    -20.48710697	      2.50254727	      3.79757842	     -9.94875507	      2.83743686	     14.00075411	    -33.86410365	      5.80529324	      5.87695876	     -2.41359739	      2.60261251	    -11.03907825
      1.92000000	      6.05377705	     -1.89395322	     69.44698307	      0.82649998	      1.04407933	      0.44743322	     21.64252272	      6.88808508	      1.59716841	    -21.05522858	      2.99237900	      3.82784950	     -9.02008209	      2.49346881	     13.92109170	    -36.41784917	      3.36881022	      8.80506485	     -2.45979744	      3.05035907	    -11.18020568
      1.93000000	      6.38132566	     -1.73972511	     70.35825552	      0.82990066	      1.04587973	      0.43698634	     20.89117051	      6.90041036	      1.01121392	    -21.32861000	      3.52325326	      3.79694510	     -7.94172862	      2.13908702	     13.82229591	    -39.09333712	      0.80256297	     11.67766603	     -2.54017345	      3.48199977	    -11.27111909
      1.94000000	      6.72374756	     -1.58332280	     71.31232576	      0.83311353	      1.04776790	      0.42681324	     20.00905584	      6.92266082	      0.24700373	    -21.33878852	      4.10118169	      3.71028278	     -6.70232435	      1.76264703	     13.73891599	    -41.89159835	     -1.82467080	     14.20779309	     -2.64546222	      3.91162311	    -11.31329953
